<svg xmlns="http://www.w3.org/2000/svg"  viewBox="0 0 48 48" width="240px" height="240px"><path fill="#8ce7f2" d="M36.109,48H19.891C18.294,48,17,46.706,17,45.109V10.891C17,9.294,18.294,8,19.891,8h16.217	C37.706,8,39,9.294,39,10.891v34.217C39,46.706,37.706,48,36.109,48z"/><path fill="#18193f" d="M28,4h-8c0,0,0,0.672,0,1.5S20.671,7,21.5,7h5C27.329,7,28,6.328,28,5.5S28,4,28,4z"/><path fill="none" stroke="#18193f" stroke-linecap="round" stroke-linejoin="round" stroke-miterlimit="10" stroke-width="3" d="M35.5,37.468V41.5c0,1.657-1.343,3-3,3h-17c-1.657,0-3-1.343-3-3V14.404"/><path fill="none" stroke="#18193f" stroke-linecap="round" stroke-linejoin="round" stroke-miterlimit="10" stroke-width="3" d="M12.5,8.191V6.5c0-1.657,1.343-3,3-3h17c1.657,0,3,1.343,3,3v23.649"/></svg>