<svg xmlns="http://www.w3.org/2000/svg"  viewBox="0 0 48 48" width="240px" height="240px"><path fill="#ffe082" d="M42,47H13c-2.209,0-4-1.791-4-4V14c0-2.209,1.791-4,4-4h29c2.209,0,4,1.791,4,4v29	C46,45.209,44.209,47,42,47z"/><path fill="none" stroke="#18193f" stroke-linecap="round" stroke-linejoin="round" stroke-miterlimit="10" stroke-width="3" d="M7.637,25.3l-1.429-1.59c-0.415-0.462-0.175-1.2,0.432-1.329l2.091-0.446l1.071-1.851c0.311-0.537,1.087-0.537,1.398,0l1.071,1.851	l2.091,0.446c0.607,0.13,0.847,0.867,0.432,1.329l-1.429,1.59l0.222,2.127c0.064,0.618-0.563,1.074-1.131,0.822L10.5,27.38"/><path fill="none" stroke="#18193f" stroke-linecap="round" stroke-linejoin="round" stroke-miterlimit="10" stroke-width="3" d="M13.585,13.927c0.064,0.618-0.563,1.074-1.131,0.822L10.5,13.88l-1.954,0.868c-0.567,0.252-1.195-0.204-1.131-0.822L7.637,11.8 l-1.429-1.59c-0.415-0.462-0.175-1.2,0.432-1.329l2.091-0.446l1.071-1.851c0.311-0.537,1.087-0.537,1.398,0l1.071,1.851 l2.091,0.446"/><path fill="none" stroke="#18193f" stroke-linecap="round" stroke-linejoin="round" stroke-miterlimit="10" stroke-width="3" d="M11.199,33.584l1.071,1.851l2.091,0.446c0.607,0.13,0.847,0.867,0.432,1.329l-1.429,1.59l0.222,2.127 c0.064,0.618-0.563,1.074-1.131,0.822L10.5,40.88l-1.954,0.868c-0.567,0.252-1.195-0.204-1.131-0.822L7.637,38.8l-1.429-1.59 c-0.415-0.462-0.175-1.2,0.432-1.329l2.091-0.446l1.071-1.851C10.112,33.046,10.888,33.046,11.199,33.584z"/><line x1="39.34" x2="40.5" y1="7.5" y2="7.5" fill="none" stroke="#18193f" stroke-linecap="round" stroke-linejoin="round" stroke-miterlimit="10" stroke-width="3"/><line x1="20.5" x2="34.5" y1="7.5" y2="7.5" fill="none" stroke="#18193f" stroke-linecap="round" stroke-linejoin="round" stroke-miterlimit="10" stroke-width="3"/><line x1="20.5" x2="34.5" y1="13.5" y2="13.5" fill="none" stroke="#18193f" stroke-linecap="round" stroke-linejoin="round" stroke-miterlimit="10" stroke-width="3"/><line x1="26.489" x2="40.5" y1="21" y2="21" fill="none" stroke="#18193f" stroke-linecap="round" stroke-linejoin="round" stroke-miterlimit="10" stroke-width="3"/><line x1="20.5" x2="22.277" y1="21" y2="21" fill="none" stroke="#18193f" stroke-linecap="round" stroke-linejoin="round" stroke-miterlimit="10" stroke-width="3"/><line x1="20.5" x2="34.5" y1="27" y2="27" fill="none" stroke="#18193f" stroke-linecap="round" stroke-linejoin="round" stroke-miterlimit="10" stroke-width="3"/><g><line x1="38.745" x2="40.5" y1="35" y2="35" fill="none" stroke="#18193f" stroke-linecap="round" stroke-linejoin="round" stroke-miterlimit="10" stroke-width="3"/><line x1="20.5" x2="33.894" y1="35" y2="35" fill="none" stroke="#18193f" stroke-linecap="round" stroke-linejoin="round" stroke-miterlimit="10" stroke-width="3"/><line x1="20.5" x2="34.5" y1="41" y2="41" fill="none" stroke="#18193f" stroke-linecap="round" stroke-linejoin="round" stroke-miterlimit="10" stroke-width="3"/></g></svg>