<svg xmlns="http://www.w3.org/2000/svg"  viewBox="0 0 48 48" width="240px" height="240px"><path fill="#a5d6a7" d="M43.938,46.938H12.063c-1.657,0-3-1.343-3-3V12.063c0-1.657,1.343-3,3-3h31.875c1.657,0,3,1.343,3,3	v31.875C46.938,45.594,45.594,46.938,43.938,46.938z"/><line x1="39.191" x2="41.5" y1="10.5" y2="10.5" fill="none" stroke="#18193f" stroke-linecap="round" stroke-miterlimit="10" stroke-width="3"/><line x1="20.5" x2="34.404" y1="10.5" y2="10.5" fill="none" stroke="#18193f" stroke-linecap="round" stroke-miterlimit="10" stroke-width="3"/><line x1="40.021" x2="41.5" y1="37.5" y2="37.5" fill="none" stroke="#18193f" stroke-linecap="round" stroke-miterlimit="10" stroke-width="3"/><line x1="20.5" x2="35.489" y1="37.5" y2="37.5" fill="none" stroke="#18193f" stroke-linecap="round" stroke-miterlimit="10" stroke-width="3"/><line x1="26.553" x2="41.5" y1="24" y2="24" fill="none" stroke="#18193f" stroke-linecap="round" stroke-miterlimit="10" stroke-width="3"/><line x1="20.5" x2="22.277" y1="24" y2="24" fill="none" stroke="#18193f" stroke-linecap="round" stroke-miterlimit="10" stroke-width="3"/><path fill="#18193f" d="M10.5,16C7.467,16,5,13.532,5,10.5S7.467,5,10.5,5S16,7.468,16,10.5S13.533,16,10.5,16z"/><path fill="none" stroke="#18193f" stroke-linecap="round" stroke-linejoin="round" stroke-miterlimit="10" stroke-width="3" d="M10.5,33.5c2.209,0,4,1.791,4,4s-1.791,4-4,4s-4-1.791-4-4"/><path fill="none" stroke="#18193f" stroke-linecap="round" stroke-linejoin="round" stroke-miterlimit="10" stroke-width="3" d="M10.5,28c-2.209,0-4-1.791-4-4s1.791-4,4-4s4,1.791,4,4"/></svg>